# File created by Blade
# Date/Time:  Wed Jan 21 18:40:08 2015
# Frame Rate: 120.000 fps
#------------------------------------------------------
:FULLY-SPECIFIED
:DEGREES
2764
root -3.319322 15.820413 -8.686853 63.842701 -12.438665 24.219012
RightUpLeg -192.353432 -42.755618 53.178010
RightLeg 116.330318 -0.000000 -0.000000
RightFoot -10.621023 47.229593 19.582415
RightToeBase 26.621975 -0.000000 -0.000000
LeftUpLeg -76.818120 45.405483 -27.001685
LeftLeg -6.465005 -0.000000 0.000000
LeftFoot 13.562869 -12.011467 -45.421391
LeftToeBase 8.505312 -0.000000 -0.000000
Spine -32.643433 38.358851 1.181462
RightShoulder -5.693469 16.741004 -31.812763
RightArm -29.141771 28.303127 61.090590
RightForeArm -12.787657 -0.000000 46.320890
RightHand 30.109148 -0.000000 -60.594312
RightHandThumb1 -24.326973 -0.000000 -32.862282
LeftShoulder -27.088522 2.596946 50.252262
LeftArm 4.188715 -15.101070 -25.536301
LeftForeArm 7.849180 -0.000000 -3.152386
LeftHand -26.568573 -0.000000 20.454248
LeftHandThumb1 -26.253704 0.000000 33.147579
Head -42.438257 -22.835611 34.827332
2765
root -3.327640 15.808901 -8.685708 63.851940 -12.337120 24.203843
RightUpLeg -192.405450 -42.820069 53.273781
RightLeg 116.405212 -0.000000 -0.000000
RightFoot -10.681499 47.258513 19.568365
RightToeBase 26.737577 -0.000000 -0.000000
LeftUpLeg -76.903464 45.405945 -27.016477
LeftLeg -6.484556 -0.000000 0.000000
LeftFoot 13.644628 -12.051997 -45.465084
LeftToeBase 8.484061 -0.000000 -0.000000
Spine -32.621696 38.425747 1.174795
RightShoulder -5.703243 16.585059 -31.789537
RightArm -29.277448 28.329557 61.037765
RightForeArm -12.638702 -0.000000 46.509529
RightHand 30.166485 0.000000 -60.608356
RightHandThumb1 -24.326973 -0.000000 -32.862282
LeftShoulder -27.141259 2.649475 50.230612
LeftArm 4.008790 -15.131201 -25.705047
LeftForeArm 7.730786 0.000000 -3.341249
LeftHand -26.618798 -0.000000 20.388059
LeftHandThumb1 -26.253704 0.000000 33.147579
Head -42.617933 -22.852656 34.985441
2766
root -3.336748 15.798498 -8.685555 63.875176 -12.250825 24.180807
RightUpLeg -192.444213 -42.862898 53.349362
RightLeg 116.475314 -0.000000 -0.000000
RightFoot -10.638826 47.275709 19.675760
RightToeBase 26.797340 -0.000000 -0.000000
LeftUpLeg -77.004105 45.411323 -27.038867
LeftLeg -6.492813 -0.000000 0.000000
LeftFoot 13.718474 -12.082031 -45.475460
LeftToeBase 8.435102 -0.000000 -0.000000
Spine -32.616811 38.522195 1.136740
RightShoulder -5.703918 16.475214 -31.783062
RightArm -29.520199 28.376214 60.936531
RightForeArm -12.681479 -0.000000 46.734522
RightHand 30.014240 0.000000 -60.413287
RightHandThumb1 -24.326973 -0.000000 -32.862282
LeftShoulder -27.198581 2.825479 50.214830
LeftArm 3.914495 -15.112810 -25.975535
LeftForeArm 7.499467 -0.000000 -3.617631
LeftHand -26.663474 -0.000000 20.226026
LeftHandThumb1 -26.253704 0.000000 33.147579
Head -42.804812 -22.845485 35.126681
2767
root -3.345129 15.788643 -8.684187 63.888352 -12.153159 24.152058
RightUpLeg -192.481273 -42.902299 53.445448
RightLeg 116.546071 -0.000000 -0.000000
RightFoot -10.755198 47.268433 19.489701
RightToeBase 26.568749 -0.000000 -0.000000
LeftUpLeg -77.034703 45.411226 -26.968657
LeftLeg -6.504907 -0.000000 0.000000
LeftFoot 13.735092 -12.096791 -45.464442
LeftToeBase 8.373294 -0.000000 -0.000000
Spine -32.603981 38.625974 1.124797
RightShoulder -5.717932 16.378373 -31.769545
RightArm -29.711580 28.358765 60.856985
RightForeArm -12.335544 -0.000000 46.876741
RightHand 30.157756 0.000000 -60.497374
RightHandThumb1 -24.326973 -0.000000 -32.862282
LeftShoulder -27.219195 2.857384 50.225014
LeftArm 3.616944 -15.252279 -26.174252
LeftForeArm 7.490758 -0.000000 -3.722210
LeftHand -26.719288 -0.000000 20.196185
LeftHandThumb1 -26.253704 0.000000 33.147579
Head -42.958972 -22.850617 35.232543
2768
root -3.353680 15.779944 -8.683376 63.913672 -12.070435 24.127411
RightUpLeg -192.510682 -42.951029 53.518907
RightLeg 116.607739 -0.000000 -0.000000
RightFoot -10.752318 47.311877 19.581790
RightToeBase 26.716586 -0.000000 -0.000000
LeftUpLeg -77.120309 45.413201 -26.969700
LeftLeg -6.507246 -0.000000 0.000000
LeftFoot 13.796635 -12.103520 -45.515294
LeftToeBase 8.320050 -0.000000 -0.000000
Spine -32.618911 38.748414 1.071354
RightShoulder -5.737883 16.289345 -31.757266
RightArm -29.933492 28.343468 60.742965
RightForeArm -12.221093 -0.000000 47.002034
RightHand 30.247985 0.000000 -60.636645
RightHandThumb1 -24.326973 -0.000000 -32.862282
LeftShoulder -27.270362 2.899779 50.252910
LeftArm 3.449045 -15.146212 -26.409235
LeftForeArm 7.342844 -0.000000 -4.004280
LeftHand -26.769532 0.000000 20.024783
LeftHandThumb1 -26.253704 0.000000 33.147579
Head -43.123217 -22.882661 35.362776
2769
root -3.362059 15.770381 -8.680058 63.951083 -11.961394 24.106473
RightUpLeg -192.579489 -42.987416 53.659323
RightLeg 116.671081 -0.000000 -0.000000
RightFoot -10.743331 47.334574 19.673738
RightToeBase 26.803207 -0.000000 -0.000000
LeftUpLeg -77.208359 45.395752 -26.946822
LeftLeg -6.505658 -0.000000 0.000000
LeftFoot 13.824803 -12.133428 -45.525189
LeftToeBase 8.316442 -0.000000 -0.000000
Spine -32.660501 38.847874 1.030482
RightShoulder -5.761105 16.016937 -31.725592
RightArm -29.999196 28.455599 60.691905
RightForeArm -12.420170 0.000000 47.237928
RightHand 29.901910 -0.000000 -60.508957
RightHandThumb1 -24.326973 -0.000000 -32.862282
LeftShoulder -27.323361 2.989492 50.270206
LeftArm 3.197698 -15.255859 -26.655220
LeftForeArm 7.377834 -0.000000 -4.111092
LeftHand -26.759253 -0.000000 20.063365
LeftHandThumb1 -26.253704 0.000000 33.147579
Head -43.260181 -22.911921 35.506897
2770
root -3.368237 15.762761 -8.675512 63.965054 -11.888049 24.101584
RightUpLeg -192.628899 -43.037215 53.742854
RightLeg 116.723937 -0.000000 -0.000000
RightFoot -10.799880 47.334085 19.656938
RightToeBase 26.862451 -0.000000 -0.000000
LeftUpLeg -77.273803 45.390588 -26.975198
LeftLeg -6.528357 -0.000000 0.000000
LeftFoot 13.886950 -12.134892 -45.623967
LeftToeBase 8.405499 -0.000000 -0.000000
Spine -32.677854 38.958490 0.974820
RightShoulder -5.789443 15.836790 -31.707331
RightArm -30.146795 28.533136 60.599463
RightForeArm -12.448753 0.000000 47.398851
RightHand 29.893809 -0.000000 -60.514020
RightHandThumb1 -24.326973 -0.000000 -32.862282
LeftShoulder -27.378971 3.035439 50.269073
LeftArm 2.950757 -15.171225 -26.854242
LeftForeArm 7.313761 -0.000000 -4.272194
LeftHand -26.784749 -0.000000 19.945018
LeftHandThumb1 -26.253704 0.000000 33.147579
Head -43.392574 -22.937813 35.625406
